<?xml version="1.0" encoding="UTF-8"?>
<svg xmlns="http://www.w3.org/2000/svg" style="height: 0; width: 0; position: absolute; visibility: hidden">
  <symbol id="logo" class="h-5 w-5" viewBox="0 0 20 20" fill="currentColor">
    <polyline points="2,16 2,4 10,10 18,4 18,16" fill="none" stroke="#2E4053" />
    <polyline points="16,16 16,8 8,16 16,16" fill="#154360" />
    <polyline points="4,16 4,8 10,12" fill="#138D75" />
  </symbol>

  <symbol id="logo2" viewBox="0 0 25 25" >
    <rect x="0" y="0" width="25" height="25"></rect>
    <g id="Group" transform="translate(0.000000, 3.000000)" stroke-width="0.5"></g>
        <path d="M7.92434227,9.50760167 L13.166166,17.1713934 L3.11391106,17.4355781 L7.92434227,9.50760167 Z" id="Triangle" stroke="#00B849" fill="#00B849" transform="translate(8.068683, 13.250591) rotate(90.000000) translate(-8.068683, -13.250591) "></path>
        <path d="M10.0486849,8.44861279 L20.3709471,18.4291766 L10.2211543,18.7231471 L10.0486849,8.44861279 Z" id="Triangle-Copy" stroke="#003264" fill="#003264" transform="translate(15.538000, 13.188142) rotate(270.000000) translate(-15.538000, -13.188142) "></path>
        <path d="M24.4575339,0.70928923 L24.7464569,18.5142465 L23.9387245,18.6296368 L23.7494589,2.46928598 L23.7494589,2.46928598 L23.6730913,2.52631027 C23.1519539,2.91545127 20.7093107,4.73946367 18.2214685,6.59785501 L17.7398901,6.95759686 C16.8578092,7.61653164 15.9852789,8.26841853 15.2061289,8.85068643 C14.626852,9.28358676 14.0991886,9.67800707 13.659798,10.0065838 L13.2511894,10.3121991 L13.2511894,10.3121991 L13.0714991,10.4466457 L2.68248635,3.53792857 L1.24476831,2.4652013 L1.24476831,18.5137403 L0.433959828,18.6295701 L0.254849974,0.845172958 C8.23443277,6.36894495 12.1603589,9.28369344 12.300063,9.46628998 C12.838196,9.28548883 16.7625176,6.36950984 24.4575339,0.70928923 L24.4575339,0.70928923 Z" stroke="#092333" fill="#092333"></path>
    </g>
  </symbol>
</svg>




