<?xml version="1.0" encoding="UTF-8"?>
<svg xmlns="http://www.w3.org/2000/svg" style="height: 0; width: 0; position: absolute; visibility: hidden">
  <symbol id="user" class="h-6 w-6" fill="none" viewBox="0 0 24 24" stroke="currentColor">
    <path stroke-linecap="round" stroke-linejoin="round" stroke-width="2" d="M16 7a4 4 0 11-8 0 4 4 0 018 0zM12 14a7 7 0 00-7 7h14a7 7 0 00-7-7z" />
  </symbol>

  <symbol id="pencil-fill" class="h-5 w-5" viewBox="0 0 20 20" fill="currentColor">
    <path d="M13.586 3.586a2 2 0 112.828 2.828l-.793.793-2.828-2.828.793-.793zM11.379 5.793L3 14.172V17h2.828l8.38-8.379-2.83-2.828z" />
  </symbol>

  <symbol id="record" viewBox="0 0 100 100" fill="currentColor">
    <path fill="#231F20" d="M50,12.908c-20.485,0-37.092,16.606-37.092,37.092c0,20.485,16.606,37.092,37.092,37.092	c20.485,0,37.092-16.606,37.092-37.092C87.092,29.515,70.485,12.908,50,12.908z M50,62.191c-6.733,0-12.191-5.458-12.191-12.191c0-6.733,5.458-12.191,12.191-12.191c6.733,0,12.191,5.458,12.191,12.191C62.191,56.733,56.733,62.191,50,62.191z"/>
  </symbol>


</svg>
